<svg width="17" height="16" viewBox="0 0 17 16" fill="none" xmlns="http://www.w3.org/2000/svg">
<path d="M6.37457 7.125V4.6582H8.15582C9.12848 4.6582 9.69684 5.11523 9.69684 5.89453C9.69684 6.69727 9.09332 7.125 7.93317 7.125H6.37457Z" fill="white"/>
<path d="M6.37457 10.8867H8.27301C9.4566 10.8867 10.0836 10.4062 10.0836 9.50977C10.0836 8.625 9.43317 8.16211 8.19684 8.16211H6.37457V10.8867Z" fill="white"/>
<path d="M4.00153 0C1.79239 0 0.00152588 1.79086 0.00152588 4V12C0.00152588 14.2091 1.79239 16 4.00153 16H12.0015C14.2107 16 16.0015 14.2091 16.0015 12V4C16.0015 1.79086 14.2107 0 12.0015 0H4.00153ZM5.06207 12V3.54492H8.46051C10.0484 3.54492 11.0035 4.35352 11.0035 5.6543C11.0035 6.53906 10.3531 7.33008 9.52106 7.4707V7.57031C10.6636 7.6875 11.4254 8.50195 11.4254 9.60352C11.4254 11.0918 10.3414 12 8.53668 12H5.06207Z" fill="white"/>
</svg>
